<svg xmlns="http://www.w3.org/2000/svg" viewBox="0 0 2048 2048" width="2048" height="2048"><path d="M1494.5,2001.8C1472.9,2000.6 1446.8,1995.1 1425.8,1987.2L1415.5,1983.3L1387.5,1982.6C1355.0,1981.8 1342.0,1980.8 1322.0,1977.4C1217.7,1959.7 1125.2,1901.3 1068.1,1817.0C1056.6,1800.0 1052.8,1793.6 1041.3,1771.5C1030.6,1751.0 1026.3,1745.0 1022.4,1745.0C1019.2,1745.0 1016.4,1749.1 1008.5,1765.0C999.2,1783.5 994.4,1792.0 982.4,1810.0C956.3,1849.5 928.3,1879.4 892.6,1905.7C873.0,1920.3 866.0,1922.5 855.5,1917.6C843.3,1912.0 838.5,1898.4 844.5,1886.4C846.6,1882.2 849.3,1879.7 862.2,1869.8C938.1,1812.0 982.6,1737.8 996.7,1645.5C998.4,1634.3 998.5,1624.2 998.5,1490.4C998.5,1351.0 998.4,1347.2 996.6,1345.1C995.5,1343.9 993.7,1343.0 992.5,1343.0C991.3,1343.0 985.0,1346.5 978.4,1350.7C930.9,1381.3 890.4,1399.1 841.0,1410.9C821.0,1415.8 811.9,1417.1 807.4,1415.8C790.8,1411.3 787.2,1402.0 784.8,1357.7C782.4,1312.9 786.7,1274.7 799.6,1225.9C804.5,1207.3 804.8,1205.0 802.2,1202.7C798.6,1199.4 799.6,1199.2 728.5,1222.0C587.0,1267.5 538.9,1283.6 522.0,1291.4C415.1,1340.5 341.0,1442.7 328.0,1558.5C326.2,1575.0 325.7,1602.0 326.9,1620.0C329.5,1658.0 334.8,1682.8 347.7,1717.1L353.4,1732.5L354.1,1766.0C354.8,1802.6 355.3,1806.3 362.1,1827.0C373.4,1861.1 391.8,1887.8 420.5,1911.8C442.3,1930.1 469.1,1943.5 496.5,1949.8C513.3,1953.7 544.9,1955.2 563.5,1952.9C577.1,1951.2 597.0,1945.9 612.6,1939.7L626.5,1934.2L656.0,1934.3C689.7,1934.4 704.4,1933.0 732.9,1927.4C758.5,1922.3 764.7,1922.7 772.2,1930.3C776.0,1934.0 779.0,1941.3 779.0,1946.6C779.0,1953.4 774.7,1961.6 769.2,1965.2C764.2,1968.5 743.1,1974.0 722.5,1977.4C705.1,1980.3 693.2,1981.2 660.5,1982.5L627.5,1983.8L614.5,1988.4C588.6,1997.8 567.4,2001.4 537.5,2001.3C495.3,2001.2 458.8,1991.2 421.6,1969.5C359.2,1933.1 318.8,1872.7 307.4,1798.5C306.2,1790.7 305.7,1780.5 305.6,1763.5L305.4,1739.5L299.3,1721.0C284.5,1676.6 278.6,1641.4 278.6,1597.5C278.6,1570.7 280.0,1555.1 284.6,1530.0C294.3,1477.0 317.0,1422.4 347.6,1378.4C364.2,1354.5 391.0,1324.6 410.8,1307.8C417.9,1301.7 419.0,1300.4 419.0,1297.5C419.0,1292.7 416.1,1290.7 408.7,1290.3C362.3,1287.7 345.0,1285.1 318.5,1276.4C232.9,1248.3 157.6,1187.8 111.0,1109.4C93.7,1080.4 81.9,1053.0 70.6,1016.0C67.3,1005.4 66.5,1003.8 59.9,995.5C35.0,964.3 18.3,928.0 10.6,889.0C9.3,882.1 7.8,873.1 7.5,869.0C6.8,861.2 5.1,858.0 1.8,858.0C0.2,858.0 0.0,857.0 0.0,847.5C0.0,838.0 0.2,837.0 1.8,837.0C5.1,837.0 6.7,833.8 7.4,826.2C8.2,816.7 12.4,795.3 15.6,784.2C27.1,744.3 48.9,707.7 77.6,679.9C104.9,653.6 140.5,633.3 178.5,622.4C192.2,618.4 193.4,617.8 207.0,607.5C256.7,569.9 316.2,543.9 376.5,533.5C384.2,532.2 395.2,530.5 401.0,529.8C415.0,528.1 465.9,528.1 480.0,529.8C532.4,536.3 580.5,551.5 625.2,575.5C633.8,580.2 642.0,584.0 643.3,584.0C646.3,584.0 649.0,581.1 649.0,577.9C649.0,576.6 648.1,570.8 646.9,565.0C641.6,537.5 640.8,529.7 640.3,496.6C639.7,461.9 640.5,448.9 644.6,425.8C656.3,358.8 685.5,295.3 728.3,243.6C748.2,219.6 779.8,190.7 805.0,173.5C816.7,165.5 822.0,160.2 830.0,148.5C839.8,134.3 846.6,125.9 857.8,114.7C894.3,77.6 944.2,53.0 995.9,46.5C1015.6,44.0 1045.5,44.8 1064.1,48.4C1097.5,54.7 1126.1,66.5 1154.5,85.5C1178.7,101.7 1201.3,124.5 1218.2,149.9C1225.3,160.6 1227.8,163.0 1242.5,173.5C1249.7,178.6 1259.3,185.7 1264.0,189.4C1331.5,242.6 1380.8,322.7 1399.5,409.6C1405.9,439.2 1407.4,454.6 1407.4,488.5C1407.4,521.9 1406.3,534.9 1400.8,562.8L1397.7,579.0L1400.0,581.5C1401.3,582.9 1403.5,584.0 1404.8,584.0C1406.2,584.0 1413.9,580.5 1421.9,576.2C1473.8,548.2 1527.0,533.1 1587.5,528.9C1631.3,525.9 1682.9,533.4 1730.1,549.6C1769.8,563.2 1804.3,581.5 1837.8,606.4C1854.1,618.6 1854.7,619.0 1867.5,622.5C1946.3,644.4 2007.7,704.8 2030.9,783.0C2037.8,806.3 2039.1,815.3 2039.7,842.0C2040.3,870.0 2039.3,879.2 2033.6,902.0C2028.4,922.6 2025.3,931.0 2016.4,949.0C2007.7,966.3 1998.1,981.8 1987.6,995.4C1979.6,1005.6 1979.6,1005.8 1975.5,1019.4C1973.7,1025.7 1970.4,1035.7 1968.2,1041.8C1926.8,1154.7 1842.4,1237.8 1730.0,1276.5C1704.2,1285.3 1670.4,1292.9 1645.3,1295.5C1638.0,1296.3 1634.0,1298.8 1634.0,1302.8C1634.0,1304.8 1637.7,1309.1 1650.8,1322.4C1669.6,1341.4 1677.0,1349.8 1688.1,1364.5C1730.8,1421.1 1756.2,1483.4 1765.5,1554.5C1767.4,1568.6 1767.7,1620.5 1766.0,1636.5C1763.5,1661.1 1754.7,1700.1 1746.4,1723.5L1741.7,1736.5L1740.5,1768.5C1739.1,1802.6 1738.4,1807.9 1732.5,1829.4C1720.4,1873.6 1694.6,1915.1 1661.5,1943.7C1614.6,1984.2 1554.4,2005.2 1494.5,2001.8ZM1537.2,1952.4C1571.4,1947.0 1600.4,1933.7 1626.9,1911.5C1662.8,1881.3 1685.1,1841.3 1691.6,1795.0C1692.9,1785.8 1693.1,1779.0 1692.6,1760.5L1692.0,1737.5L1699.0,1717.0C1717.3,1664.3 1722.5,1626.4 1718.9,1571.0C1714.0,1492.7 1679.1,1416.9 1621.5,1359.5C1594.8,1332.9 1567.3,1313.0 1534.3,1296.4C1516.3,1287.3 1532.0,1292.7 1346.3,1232.0C1295.6,1215.4 1252.5,1201.6 1250.5,1201.3C1247.9,1200.9 1246.4,1201.2 1245.0,1202.5C1242.4,1204.8 1242.5,1208.6 1245.0,1218.1C1249.8,1235.6 1255.1,1258.4 1257.0,1269.9C1261.9,1299.0 1263.8,1331.6 1262.1,1358.0C1259.6,1395.7 1256.3,1407.6 1247.3,1412.7C1238.5,1417.7 1231.1,1417.3 1203.6,1410.4C1153.4,1397.9 1110.9,1379.0 1066.9,1349.6C1060.6,1345.4 1054.6,1342.0 1053.4,1342.0C1052.3,1342.0 1050.5,1342.9 1049.4,1344.1C1047.6,1346.1 1047.5,1349.4 1047.2,1440.4C1047.1,1492.1 1047.4,1559.2 1047.9,1589.5C1049.0,1650.6 1049.2,1653.0 1057.5,1684.6C1075.1,1751.9 1112.5,1810.6 1167.6,1857.1C1213.2,1895.7 1266.2,1919.9 1329.5,1931.1C1339.3,1932.8 1349.3,1933.4 1383.0,1934.4L1424.5,1935.7L1431.0,1938.7C1446.2,1945.9 1470.0,1952.2 1488.6,1954.0C1500.3,1955.1 1525.4,1954.3 1537.2,1952.4ZM862.7,1356.2C914.0,1339.2 956.2,1313.7 998.4,1274.3C1009.8,1263.6 1016.1,1260.0 1023.4,1260.0C1030.7,1260.0 1035.1,1262.6 1050.0,1276.1C1082.4,1305.2 1111.1,1324.9 1142.8,1339.7C1156.3,1346.0 1183.2,1356.5 1193.6,1359.5C1205.3,1362.9 1210.2,1362.8 1213.1,1359.2C1215.2,1356.5 1215.2,1356.2 1214.6,1333.0C1213.9,1304.2 1212.7,1290.8 1209.5,1272.2C1203.8,1239.5 1196.0,1215.1 1179.8,1179.1C1171.4,1160.6 1170.7,1156.6 1174.4,1148.9C1175.8,1145.9 1178.0,1142.4 1179.2,1141.3C1180.5,1140.2 1187.8,1135.8 1195.5,1131.5C1212.8,1122.0 1234.0,1108.0 1248.5,1096.4C1262.9,1084.9 1297.3,1050.4 1307.7,1036.9C1327.6,1011.3 1330.7,1004.9 1325.7,1000.2C1319.1,994.0 1274.7,982.0 1241.5,977.4C1223.1,974.8 1160.8,974.8 1144.6,977.3C1138.6,978.2 1131.6,979.0 1129.1,979.0C1119.6,979.0 1110.7,971.7 1107.6,961.3C1106.7,958.1 1104.6,949.0 1103.0,941.0C1091.7,886.6 1070.2,838.2 1038.2,795.8C1025.8,779.3 1023.3,778.5 1014.5,788.2C1007.8,795.7 990.8,820.8 981.6,837.0C964.5,867.2 950.8,905.6 942.5,946.8C938.8,965.2 937.1,969.2 931.1,973.7C924.5,978.8 920.5,979.6 908.1,978.2C880.6,975.0 875.5,974.8 846.5,975.3C816.1,975.8 804.5,976.9 783.0,981.1C755.5,986.4 725.2,995.8 719.8,1000.7C716.8,1003.4 717.7,1007.1 723.0,1015.3C751.2,1058.2 800.3,1103.2 847.8,1129.6C868.4,1141.0 871.5,1143.9 874.0,1152.9C875.5,1158.4 874.0,1163.4 865.6,1181.7C849.7,1216.3 840.6,1247.5 835.0,1286.5C833.3,1297.9 832.7,1308.3 832.3,1329.5C831.8,1357.5 831.8,1357.5 834.0,1360.4C836.1,1362.9 836.7,1363.2 840.6,1362.6C843.0,1362.3 853.0,1359.4 862.7,1356.2ZM1644.0,1248.0C1722.6,1238.4 1789.6,1206.4 1843.5,1152.5C1872.2,1124.0 1891.3,1097.3 1909.0,1061.5C1919.4,1040.2 1925.3,1025.1 1931.5,1003.1C1934.0,994.2 1936.5,985.8 1937.0,984.5C1937.5,983.1 1942.6,976.2 1948.2,969.2C1960.9,953.5 1967.5,943.3 1975.1,927.6C1992.7,891.0 1997.4,850.1 1988.9,807.8C1983.8,782.3 1971.1,754.9 1954.7,734.1C1927.1,699.2 1890.9,676.1 1848.1,666.1C1835.9,663.2 1832.1,661.2 1817.0,649.4C1765.4,609.2 1710.9,586.3 1648.0,578.3C1629.4,576.0 1584.7,576.0 1566.4,578.3C1495.2,587.3 1430.7,616.5 1381.0,662.4C1357.6,684.0 1350.9,692.3 1295.1,769.0C1189.9,913.6 1188.0,916.3 1188.0,919.5C1188.0,920.7 1189.1,922.6 1190.4,923.9C1192.5,925.9 1194.5,926.2 1215.0,927.5C1246.3,929.6 1270.3,933.5 1298.5,941.0C1332.6,950.1 1374.1,967.1 1382.4,975.5C1387.4,980.4 1389.7,988.5 1388.1,995.5C1385.6,1006.7 1356.5,1052.3 1337.6,1074.5C1320.8,1094.3 1296.8,1117.7 1277.4,1133.1C1260.5,1146.6 1258.6,1149.4 1263.2,1153.7C1266.2,1156.5 1308.9,1171.0 1429.0,1210.0C1524.0,1240.9 1542.1,1245.7 1577.0,1249.0C1588.6,1250.1 1632.3,1249.4 1644.0,1248.0ZM450.5,1241.0C482.0,1240.1 497.9,1238.9 527.6,1235.0C540.8,1233.3 545.9,1232.0 567.1,1225.1C580.5,1220.7 628.5,1205.2 673.6,1190.6C765.1,1161.0 780.4,1155.8 783.1,1153.4C787.6,1149.4 785.2,1146.4 763.0,1127.9C721.4,1093.5 683.8,1047.5 662.5,1004.9C657.0,994.0 656.5,988.3 660.6,980.3C663.7,974.1 668.1,971.0 684.8,963.5C732.5,942.2 785.2,929.6 837.3,927.1C853.9,926.3 855.3,926.1 857.5,924.0C858.9,922.7 860.0,920.7 860.0,919.5C860.0,916.8 844.4,894.8 766.7,787.5C724.0,728.5 698.4,694.8 687.3,682.9C633.9,625.2 566.5,589.9 489.0,579.0C395.3,565.7 302.1,591.0 229.9,649.0C215.5,660.6 212.4,662.2 198.7,665.5C162.5,674.1 133.9,690.0 107.4,716.5C70.6,753.2 52.4,800.6 54.3,854.5C55.8,897.7 70.1,934.2 99.0,969.0C103.8,974.8 108.4,980.9 109.2,982.5C110.1,984.1 112.7,992.2 115.0,1000.5C128.2,1047.2 147.8,1086.1 176.7,1122.6C187.0,1135.6 215.9,1164.5 229.7,1175.6C257.0,1197.6 289.3,1216.0 322.0,1228.2C343.6,1236.2 362.3,1240.0 386.0,1241.0C410.8,1242.0 415.8,1242.0 450.5,1241.0ZM948.0,1222.1C937.7,1219.0 929.8,1208.8 929.8,1198.5C929.8,1192.0 931.5,1189.2 957.0,1154.0C981.7,1119.8 982.9,1117.4 977.5,1113.2C976.1,1112.1 957.9,1105.5 937.1,1098.5C914.6,1091.0 897.8,1084.8 895.9,1083.4C881.9,1073.1 883.6,1052.8 899.1,1044.7C906.7,1040.6 911.8,1041.3 937.5,1049.5C979.7,1063.1 989.5,1066.0 993.1,1066.0C1000.0,1066.0 999.8,1067.4 1000.2,1019.5C1000.5,977.0 1000.5,976.4 1002.8,971.8C1006.6,964.2 1015.3,959.0 1024.4,959.0C1029.8,959.0 1038.3,963.2 1041.5,967.4C1047.2,974.9 1047.2,975.1 1047.9,1020.6C1048.5,1060.2 1048.6,1062.9 1050.4,1064.9C1051.5,1066.1 1053.1,1067.0 1054.1,1067.0C1055.1,1067.0 1068.4,1062.9 1083.7,1057.9C1137.9,1040.2 1138.7,1040.1 1147.8,1044.6C1153.7,1047.5 1157.2,1051.6 1159.5,1057.9C1161.5,1063.7 1161.4,1066.9 1159.0,1073.3C1155.3,1083.1 1153.6,1084.0 1106.7,1099.6C1071.3,1111.5 1067.0,1113.5 1067.0,1118.5C1067.0,1120.8 1075.2,1133.1 1094.5,1160.0C1117.6,1192.1 1119.2,1195.4 1116.7,1204.1C1113.9,1213.6 1108.5,1218.9 1099.1,1221.7C1094.5,1223.0 1093.4,1223.0 1088.4,1221.5C1080.7,1219.3 1077.5,1215.7 1054.5,1184.4C1030.2,1151.3 1026.6,1147.0 1023.5,1147.0C1020.4,1147.0 1016.8,1151.3 994.0,1182.4C970.1,1214.9 968.3,1217.1 963.0,1219.7C957.8,1222.1 951.6,1223.1 948.0,1222.1ZM1155.9,879.5C1174.5,855.0 1262.4,734.9 1281.8,707.5C1286.8,700.4 1295.8,687.8 1301.6,679.5C1314.1,661.8 1321.0,649.8 1330.1,630.0C1344.8,598.0 1352.6,571.2 1357.7,535.0C1359.1,525.0 1359.4,515.8 1359.4,488.5C1359.4,458.8 1359.1,452.7 1357.2,440.3C1345.9,365.5 1314.6,303.5 1261.5,250.5C1244.4,233.3 1231.8,222.9 1208.0,206.5L1191.4,195.0L1185.5,185.3C1169.5,159.3 1147.9,136.6 1125.0,121.8C1077.8,91.2 1018.2,83.9 963.5,102.1C949.8,106.7 928.6,117.3 917.1,125.5C898.6,138.4 880.2,157.4 868.3,175.5C854.1,197.3 855.8,195.5 838.4,207.4C829.5,213.5 818.2,221.6 813.4,225.5C801.8,234.6 769.4,266.9 759.8,279.0C718.0,331.8 693.8,392.7 687.9,460.5C686.6,475.8 687.2,513.5 689.1,530.0C691.6,552.9 698.5,581.6 707.5,606.6C712.9,621.6 726.4,649.8 734.2,662.0C739.4,670.3 845.7,817.3 877.3,860.0C896.0,885.2 899.3,889.0 903.1,889.0C907.2,889.0 909.1,885.9 916.6,866.7C925.3,844.8 941.4,812.5 952.7,794.5C973.3,761.7 1002.8,726.5 1014.3,721.1C1018.1,719.2 1020.3,718.9 1025.0,719.2C1033.0,719.8 1039.0,724.0 1051.1,737.7C1088.7,780.2 1114.4,823.6 1134.0,877.5C1138.0,888.3 1140.2,891.2 1144.5,890.8C1147.0,890.5 1148.8,888.8 1155.9,879.5Z" fill="#000" fill-rule="evenodd"/></svg>