<svg id="Capa_1" enable-background="new 0 0 592.494 592.494" height="512" viewBox="0 0 592.494 592.494" width="512" xmlns="http://www.w3.org/2000/svg"><g><path d="m91.944 324.963c-3.269.005-6.342-1.556-8.265-4.2-7.098-9.736-13.707-19.488-19.652-28.97-3.047-4.748-1.669-11.067 3.079-14.115 4.748-3.047 11.067-1.669 14.115 3.079.039.06.077.121.114.182 5.696 9.083 12.041 18.435 18.855 27.793 3.322 4.56 2.318 10.95-2.242 14.272-1.745 1.27-3.847 1.956-6.004 1.959z"/><circle cx="51.077" cy="245.504" r="10.215"/><path d="m592.494 247.828c0-41.21-15.138-70.958-46.244-90.821-17.552-49.231-57.078-78.491-111.925-82.86-33.778-34.029-85.979-42.927-138.078-23.474-52.089-19.453-104.284-10.564-138.078 23.474-54.848 4.369-94.373 33.629-111.925 82.86-31.106 19.863-46.244 49.611-46.244 90.821 0 34.017 71.902 143.097 155.077 206.922l-4.988 27.215c-4.928 27.292 12.753 53.551 39.894 59.249 70.117 14.338 142.411 14.338 212.528 0 27.141-5.699 44.822-31.958 39.894-59.249l-4.988-27.215c83.175-63.826 155.077-172.909 155.077-206.922zm-172.34 194.352c-3.132 2.321-4.671 6.222-3.966 10.056l6.129 33.42c2.974 16.349-7.603 32.095-23.862 35.524-67.437 13.807-136.973 13.807-204.41 0-16.259-3.43-26.836-19.176-23.862-35.524l6.129-33.42c.705-3.834-.833-7.735-3.966-10.056-86.169-63.815-151.915-170.619-151.915-194.352 0-31.047 9.746-53.277 30.442-69.118l119.827 234.879c2.436 5.089 8.537 7.239 13.625 4.802 5.089-2.436 7.239-8.537 4.803-13.625-.074-.154-.151-.305-.232-.455l-122.962-241.032c13.377-38.421 48.368-65.17 88.953-68l76.513 336.367c1.057 4.648 5.187 7.947 9.954 7.951.765.002 1.529-.085 2.274-.259 5.498-1.247 8.945-6.715 7.698-12.213-.001-.003-.001-.005-.002-.008l-77.281-339.736c18.448-17.423 43.004-26.898 68.374-26.382 14.871.167 29.608 2.826 43.599 7.866l.015 370.733c0 5.642 4.574 10.215 10.215 10.215s10.215-4.574 10.215-10.215l-.015-370.83c42.643-14.899 84.591-7.958 112.02 18.543l-77.298 339.807c-1.251 5.497 2.191 10.968 7.689 12.219.003.001.005.001.008.002.745.174 1.508.261 2.274.259 4.766-.004 8.895-3.303 9.952-7.951l76.513-336.367c40.584 2.83 75.575 29.579 88.953 68l-122.953 241.032c-2.688 4.961-.845 11.161 4.116 13.848 4.961 2.688 11.161.845 13.848-4.116.081-.15.158-.301.232-.455l119.822-234.88c20.696 15.841 30.442 38.072 30.442 69.119-.001 23.733-65.747 130.537-151.91 194.352z"/></g></svg>