<svg width="512" height="512" viewBox="0 0 512 512" fill="none" xmlns="http://www.w3.org/2000/svg">
<g clip-path="url(#clip0_235_4487)">
<path d="M143.288 107.218C143.288 84.4068 161.78 65.9151 184.591 65.915H202.467C206.609 65.915 209.967 69.2729 209.967 73.415C209.967 77.5571 206.609 80.915 202.467 80.915H184.591C170.064 80.9151 158.288 92.6911 158.288 107.218C158.288 113.58 160.538 119.397 164.292 123.946C166.928 127.141 166.476 131.868 163.281 134.505C160.087 137.141 155.359 136.689 152.723 133.494C146.833 126.357 143.288 117.191 143.288 107.218Z" fill="black"/>
<path d="M353.712 107.219C353.712 92.692 341.936 80.916 327.409 80.916H298.254C275.91 80.916 257.796 62.8021 257.796 40.458C257.796 26.3983 246.398 15.0002 232.338 15H230.648C216.588 15 205.19 26.3981 205.19 40.458C205.19 75.7841 224.87 106.525 253.899 122.294C257.539 124.271 258.887 128.824 256.91 132.464C254.933 136.104 250.379 137.452 246.739 135.475C213.072 117.186 190.19 81.4999 190.19 40.458C190.19 18.1139 208.304 0 230.648 0H232.338C254.682 0.000239183 272.796 18.114 272.796 40.458C272.796 54.5179 284.195 65.916 298.254 65.916H327.409C350.22 65.916 368.712 84.4077 368.712 107.219C368.712 117.092 365.239 126.176 359.452 133.282C356.836 136.494 352.112 136.977 348.9 134.361C345.688 131.746 345.205 127.022 347.82 123.811C351.507 119.283 353.712 113.518 353.712 107.219Z" fill="black"/>
<path d="M394.698 169.19C394.698 151.552 380.4 137.253 362.761 137.253H149.239C131.601 137.253 117.302 151.551 117.302 169.19C117.302 177.697 120.619 185.415 126.045 191.145C128.893 194.152 128.764 198.899 125.756 201.747C122.749 204.595 118.002 204.465 115.154 201.458C107.195 193.054 102.302 181.684 102.302 169.19C102.302 143.267 123.317 122.253 149.239 122.253H362.761C388.684 122.253 409.698 143.268 409.698 169.19C409.698 182.148 404.436 193.893 395.95 202.379C393.021 205.308 388.273 205.308 385.344 202.379C382.415 199.45 382.415 194.701 385.344 191.773C391.132 185.985 394.698 178.01 394.698 169.19Z" fill="black"/>
<path d="M68.5 242.429C68.5 213.396 92.0361 189.859 121.07 189.859H286.813C290.955 189.859 294.313 193.217 294.313 197.359C294.313 201.501 290.955 204.859 286.813 204.859H121.07C100.321 204.859 83.5 221.68 83.5 242.429C83.5001 249.682 85.5481 256.434 89.0938 262.165C91.2731 265.687 90.1845 270.309 86.6621 272.489C83.1397 274.668 78.5173 273.58 76.3379 270.057C71.3678 262.024 68.5001 252.55 68.5 242.429Z" fill="black"/>
<path d="M428.5 242.43C428.5 221.681 411.679 204.86 390.93 204.86H321.813C317.671 204.86 314.313 201.502 314.313 197.36C314.313 193.218 317.671 189.86 321.813 189.86H390.93C419.963 189.86 443.5 213.396 443.5 242.43C443.5 252.681 440.558 262.267 435.47 270.365C433.267 273.872 428.638 274.929 425.13 272.725C421.623 270.522 420.566 265.893 422.769 262.385C426.399 256.608 428.5 249.776 428.5 242.43Z" fill="black"/>
<path d="M458.5 297.5C458.5 285.073 448.427 275 436 275H76C63.5731 275 53.5 285.073 53.5 297.5C53.5 309.927 63.5731 320 76 320H436C448.427 320 458.5 309.927 458.5 297.5ZM473.5 297.5C473.5 318.211 456.711 335 436 335H76C55.2889 335 38.5 318.211 38.5 297.5C38.5 276.789 55.2889 260 76 260H436C456.711 260 473.5 276.789 473.5 297.5Z" fill="black"/>
<path d="M428.349 327.987C428.941 323.887 432.744 321.044 436.844 321.636C440.943 322.228 443.787 326.032 443.195 330.131L422.809 471.289C419.435 494.658 399.408 512 375.797 512H202.963C198.821 512 195.463 508.642 195.463 504.5C195.463 500.358 198.821 497 202.963 497H375.797C391.952 497 405.655 485.134 407.963 469.145L428.349 327.987Z" fill="black"/>
<path d="M75.1377 321.515C79.2372 320.923 83.0407 323.766 83.6329 327.866L104.036 469.145C106.345 485.134 120.047 497 136.202 497H168.283C172.425 497.001 175.783 500.358 175.783 504.5C175.783 508.642 172.425 512 168.283 512H136.202C112.591 512 92.5653 494.657 89.1905 471.289L68.7871 330.01C68.1951 325.911 71.0383 322.107 75.1377 321.515Z" fill="black"/>
<path d="M418 437C422.142 437 425.5 440.358 425.5 444.5C425.5 448.642 422.142 452 418 452H94C89.8579 452 86.5 448.642 86.5 444.5C86.5 440.358 89.8579 437 94 437H418Z" fill="black"/>
<path d="M182.905 377.344V365.344C182.905 361.202 186.263 357.844 190.405 357.844C194.547 357.844 197.905 361.202 197.905 365.344V377.344C197.905 381.486 194.547 384.844 190.405 384.844C186.263 384.844 182.905 381.486 182.905 377.344Z" fill="black"/>
<path d="M267.64 372.344C270.361 369.221 275.098 368.896 278.221 371.617C281.344 374.338 281.669 379.075 278.948 382.198C273.382 388.586 265.166 392.65 256 392.65C246.833 392.65 238.617 388.584 233.052 382.199C230.33 379.076 230.656 374.338 233.778 371.617C236.901 368.895 241.639 369.221 244.36 372.343C247.205 375.607 251.361 377.65 256 377.65C260.64 377.65 264.795 375.608 267.64 372.344Z" fill="black"/>
<path d="M330.318 377.009C330.318 373.471 327.45 370.603 323.912 370.603C320.374 370.603 317.506 373.471 317.506 377.009C317.506 381.151 314.148 384.509 310.006 384.509C305.864 384.509 302.506 381.151 302.506 377.009C302.506 365.187 312.09 355.603 323.912 355.603C335.734 355.603 345.318 365.187 345.318 377.009C345.317 381.151 341.96 384.509 337.818 384.509C333.676 384.509 330.318 381.151 330.318 377.009Z" fill="black"/>
</g>
<defs>
<clipPath id="clip0_235_4487">
<rect width="512" height="512" fill="white"/>
</clipPath>
</defs>
</svg>
