<svg id="line" viewBox="0 0 64 64" xmlns="http://www.w3.org/2000/svg"><path d="m60.94043 20.73047c0-.66992-.13672-1.31641-.40723-1.91895-1.33496-2.9873-3.74414-7.25195-7.64062-10.60938-1.00346-.83817-2.28863.649-1.30465 1.51567 3.61617 3.11519 5.86715 7.10835 7.12008 9.91109.51172 1.12287.15316 2.53367-.84279 3.27441-.92576.70313-2.20311.73926-3.17576.0879-10.04712-6.19582-25.09187-11.64149-37.52823-11.20933-.60329.04582-1.15689.09556-1.72891.19872 5.94968-3.8441 23.26675-10.47253 32.80987-4.62702 1.14878.62818 2.11633-1.09058.97651-1.74617-3.58198-2.00194-7.5898-2.85643-11.90034-2.54491-17.3692 1.24347-27.64624 10.41937-28.49493 11.20447-3.40192 2.26514-5.32288 4.97339-5.70135 8.05237-.53538 4.93336 2.74033 9.25759 5.03264 11.59526.00008-.00004 12.69155 11.68068 12.69155 11.68068.07562.40686.24268.79211.51605 1.11957 0 0 2.66406 3.19727 2.66406 3.19727.72949.87402 1.94922 1.13086 2.96582.62109 0 0 .80762-.40234.80762-.40234.41232 1.42647 1.30258 2.69867 2.58597 3.44432-.00003.00002-.81741 4.29982-.81741 4.29982-.57289 3.28386 4.22541 4.42577 5.13673 1.14738-.00001.00008 1.30565-5.07414 1.30565-5.07414l.47266 1.26367c1.13553 2.98927 5.68478 1.71848 5.05953-1.44932.00004.00011-1.32711-6.51552-1.32711-6.51552-.32973-1.88423-2.56756-2.99851-4.27053-2.13179.00002-.00005-1.60935.76655-1.60935.76655s-.46582-.62891-.46582-.62891c.73504-.88163 2.88316-2.71317 3.01303-3.62423-.00003-.00004 22.19888-17.13261 22.19888-17.13261 1.16938-.91988 1.8628-2.2792 1.8584-3.76562zm-6.10223 4.51331-18.28723 14.11365 11.6189-17.73419c2.77106 1.21353 4.40473 2.63975 6.66833 3.62054zm-49.73077-2.6803c4.18548-15.92396 30.93626-6.43921 41.2362-1.80374-.06595-.01071-11.56449 17.86591-11.68329 17.72076-.6906-.05472-1.33806.1738-1.84783.6279l-6.39355 5.70117c-1.01211-.94502-2.09619-2.46116-3.67129-2.05296.00002-.00008-8.66557-13.07918-8.66557-13.07918-.11182-6.26703 1.4541-10.67596 2.8056-13.27606.58685-1.16733-1.14824-2.08342-1.77541-.92183-1.56162 2.74104-3.45537 9.02143-2.99108 15.58005.09921 1.51168-1.88846 2.28726-2.84997 1.166-1.77343-1.9317-4.64611-5.73279-4.16381-9.66211zm7.15234 11.73828c.64917-.3653 1.14893-.90399 1.46863-1.53528l6.04694 9.12671-8.00415-7.3667c.16736-.06384.33154-.13647.48859-.22473zm22.58203 7.01855-3.00098 3.16699c-.33398.35254-.36719.89355-.07715 1.2832l1.45703 1.96289c.28516.38477.80273.5127 1.23242.30762l2.35156-1.11914c.29004-.13672.61621-.13379.90332.00781.28516.14258.48438.40332.54883.71582l1.32617 6.51562c.15831.75799-.95764 1.07773-1.22657.35152.00001.00004-1.58495-4.24215-1.58495-4.24215-.30606-.90848-1.69573-.82559-1.90527.10064 0-.00005-2.09863 8.15425-2.09863 8.15425-.08594.33398-.4082.53516-.75293.45898-.33398-.07617-.54492-.39941-.48145-.73633l.95801-5.04004c.08887-.4668-.16309-.93164-.60352-1.1123-.95508-.39062-1.69727-1.17383-2.03516-2.14941l-.53613-1.5459c-.17894-.55765-.87262-.8405-1.39063-.56639 0-.00001-1.82617.91014-1.82617.91014-.18262.0918-.40527.0459-.53711-.1123l-2.66406-3.19727c-.36112-.43938.26102-.99759.66213-.61424-.00002-.00001 2.13181 2.07225 2.13181 2.07225.37793.36621.9707.37988 1.36328.0293l7.08887-6.32129c.47689-.42146 1.12443.26308.69727.71973z"/><path d="m26.8418 42.71484c4.04679-.10603 4.04697-6.03398-.00009-6.13965-4.04769.10626-4.04589 6.03421.00009 6.13965zm0-4.13965c1.40571.0248 1.40466 2.11463-.00005 2.13965-1.40482-.02521-1.40547-2.11505.00005-2.13965z"/></svg>