<svg xmlns="http://www.w3.org/2000/svg" viewBox="0 0 2048 2048" width="2048" height="2048"><path d="M1377.0,1903.0C1374.5,1902.5 1368.0,1899.8 1362.5,1897.1C1343.2,1887.5 1331.8,1871.2 1329.5,1849.9C1328.4,1839.9 1330.2,1831.4 1338.9,1805.3C1362.6,1733.6 1391.8,1680.5 1428.9,1641.6C1456.5,1612.7 1496.8,1588.8 1533.7,1579.5C1545.5,1576.6 1559.9,1574.0 1564.9,1574.0C1571.2,1574.0 1571.3,1573.7 1567.5,1559.3C1543.1,1464.9 1500.2,1378.6 1439.5,1301.5C1375.1,1219.8 1293.9,1153.6 1202.0,1107.7C1124.5,1069.0 1043.0,1045.8 955.0,1037.5C933.4,1035.5 898.0,1034.3 898.0,1035.7C898.0,1039.6 901.4,1071.2 903.1,1083.0C909.6,1128.6 921.9,1169.8 939.1,1204.1C944.2,1214.3 946.0,1221.9 946.0,1233.2C946.0,1244.7 944.2,1251.8 938.8,1262.3C932.6,1274.1 923.1,1283.3 910.9,1289.3C900.1,1294.5 894.1,1296.0 883.1,1296.0C870.5,1296.0 865.0,1294.3 846.0,1284.9C826.7,1275.3 812.3,1266.8 797.6,1256.6C735.1,1213.0 687.9,1155.4 653.3,1080.6C649.2,1071.8 645.7,1064.3 645.5,1064.1C645.0,1063.7 632.9,1066.3 577.5,1079.0C553.9,1084.4 524.4,1091.2 512.0,1093.9C471.0,1103.1 435.6,1114.2 395.0,1130.5C319.2,1160.9 242.2,1202.3 153.9,1260.1C129.9,1275.8 121.7,1280.2 109.0,1284.2C102.3,1286.2 99.6,1286.5 84.0,1286.5C66.8,1286.5 66.3,1286.4 57.0,1283.2C32.8,1274.8 13.8,1259.4 3.6,1240.0L0.0,1233.2L0.0,1193.4L0.0,1153.5L3.3,1147.7C5.0,1144.5 28.5,1111.3 55.5,1073.8L104.5,1005.7L108.6,987.6C139.1,855.6 211.6,726.5 315.1,619.8C324.6,610.0 327.7,607.5 333.5,604.8C339.9,601.8 341.3,601.5 350.1,601.5C359.1,601.5 360.0,601.7 367.2,605.2C376.1,609.7 381.0,614.6 385.4,623.9C388.2,629.9 388.5,631.4 388.5,640.0C388.5,654.1 386.0,658.8 368.7,677.2C267.9,784.5 209.0,892.7 181.5,1021.0C180.0,1027.9 177.6,1035.8 176.3,1038.5C174.9,1041.2 150.3,1076.1 121.7,1116.0L69.6,1188.5L69.5,1193.7C69.5,1202.4 75.6,1208.5 84.3,1208.5C89.3,1208.5 90.4,1207.9 112.0,1193.9C154.5,1166.3 183.9,1148.6 222.4,1127.1L242.2,1116.2L248.5,1102.1C274.8,1043.6 309.3,993.5 354.5,948.5C398.2,904.9 445.1,871.5 505.0,841.6C533.1,827.6 552.6,819.1 579.2,809.4L598.0,802.6L598.0,777.1C598.1,763.0 598.5,745.8 598.9,738.9C599.6,727.8 600.1,725.4 602.8,719.7C606.9,710.9 612.8,704.7 620.9,700.7C627.1,697.7 628.1,697.5 638.5,697.5C649.1,697.5 649.7,697.6 655.7,700.9C663.4,705.0 670.3,712.2 673.8,719.8L676.5,725.5L676.2,773.0C675.7,831.3 677.3,860.0 683.1,901.0C687.7,933.5 695.7,969.4 704.6,997.1C729.2,1073.8 770.6,1136.2 826.0,1180.1C836.7,1188.6 850.2,1198.2 850.7,1197.7C850.8,1197.5 849.6,1193.6 848.0,1189.1C834.0,1150.7 823.8,1096.5 820.0,1040.2C818.7,1020.3 818.7,954.6 820.0,930.9C824.4,853.3 838.0,766.1 858.1,686.2C861.3,673.2 865.2,660.2 866.9,656.6C870.6,649.0 877.8,641.9 885.8,638.2C890.8,635.8 892.7,635.5 902.0,635.5C912.3,635.5 912.7,635.6 919.7,639.4C928.3,644.0 933.2,649.0 937.2,657.5C942.4,668.8 942.2,673.6 935.2,701.5C928.8,726.7 922.0,756.6 922.0,759.2C922.0,760.4 925.0,760.9 938.2,761.9C1083.8,772.8 1225.0,828.6 1338.2,920.2C1348.5,928.5 1350.1,930.3 1354.6,939.0C1357.2,944.0 1357.5,945.4 1357.5,955.0C1357.5,964.9 1357.3,966.0 1354.3,972.1C1350.4,980.1 1343.2,987.1 1335.2,990.8C1330.6,993.0 1327.7,993.5 1320.2,993.8C1311.3,994.2 1310.6,994.0 1303.7,990.7C1299.7,988.8 1291.0,982.9 1284.0,977.3C1194.8,906.2 1089.2,861.0 974.0,844.6C951.3,841.4 909.7,837.5 908.2,838.6C906.3,839.8 897.0,937.3 897.0,955.5C897.0,956.8 899.0,957.0 910.8,957.0C960.4,957.0 1029.4,966.3 1084.3,980.5C1202.2,1010.8 1314.1,1070.4 1405.7,1151.7C1413.8,1158.9 1430.2,1174.7 1442.1,1186.7L1463.8,1208.5L1460.3,1201.0C1448.9,1176.1 1431.0,1144.5 1412.8,1117.2C1398.4,1095.7 1397.7,1093.9 1397.6,1082.0C1397.5,1073.3 1397.8,1071.9 1400.6,1065.9C1404.9,1057.0 1409.6,1052.0 1418.3,1047.4C1425.3,1043.6 1425.7,1043.5 1436.0,1043.5C1445.3,1043.5 1447.2,1043.8 1452.2,1046.2C1460.7,1050.2 1466.1,1055.8 1477.5,1072.9C1505.9,1115.6 1533.1,1168.1 1551.3,1215.6C1573.2,1272.8 1587.6,1330.3 1596.4,1395.6C1598.7,1412.8 1599.1,1414.3 1604.0,1425.6C1625.8,1475.5 1642.5,1528.6 1653.6,1583.5C1656.7,1599.2 1658.0,1607.9 1658.0,1614.1C1658.0,1621.9 1657.7,1623.2 1654.2,1630.6C1649.6,1639.9 1644.6,1644.9 1635.1,1649.4C1628.6,1652.4 1628.2,1652.5 1617.0,1652.1C1589.8,1651.0 1570.9,1651.6 1560.3,1653.8C1514.2,1663.7 1478.5,1693.5 1447.2,1748.7C1439.1,1762.8 1421.0,1803.4 1422.2,1804.6C1422.4,1804.8 1425.0,1803.8 1428.0,1802.4C1472.8,1781.6 1545.4,1763.0 1606.5,1756.5C1626.3,1754.4 1632.4,1752.4 1640.0,1745.3C1643.2,1742.3 1647.8,1736.9 1650.1,1733.2C1655.8,1724.0 1661.4,1718.4 1668.5,1714.7C1673.7,1712.0 1675.8,1711.6 1684.2,1711.2C1693.4,1710.8 1694.2,1710.9 1701.0,1714.1C1705.0,1715.9 1711.4,1720.0 1715.3,1723.2C1724.1,1730.4 1729.1,1732.8 1737.4,1734.3C1743.0,1735.2 1745.3,1735.1 1754.7,1733.1C1816.3,1720.3 1869.3,1715.5 1922.8,1718.0C1936.3,1718.6 1947.9,1719.4 1948.4,1719.7C1950.2,1720.6 1929.0,1700.7 1918.8,1691.8C1883.8,1661.1 1842.2,1634.1 1814.5,1624.1C1792.8,1616.2 1780.5,1614.9 1768.7,1619.4C1763.3,1621.5 1760.2,1622.0 1753.2,1622.0C1745.6,1622.0 1743.7,1621.6 1738.0,1618.9C1728.5,1614.4 1723.9,1610.2 1719.5,1601.8C1714.6,1592.5 1714.2,1587.7 1716.4,1554.5C1725.3,1417.1 1722.6,1282.7 1708.9,1178.0C1700.3,1112.2 1688.9,1064.8 1669.3,1012.5C1635.2,921.7 1589.6,841.1 1530.3,766.7C1491.9,718.5 1444.1,670.4 1397.0,632.5C1348.1,593.1 1290.2,556.3 1237.0,530.7C1149.0,488.5 1056.5,462.6 961.3,453.6C885.1,446.4 806.2,451.5 731.5,468.6C659.5,485.0 585.3,514.6 527.7,549.9C524.0,552.1 517.8,555.7 513.8,557.7C506.8,561.4 506.1,561.5 496.5,561.5C487.0,561.4 486.1,561.2 479.5,557.8C471.5,553.7 465.5,547.7 461.3,539.8C458.7,534.9 458.5,533.7 458.5,523.0C458.5,511.8 458.6,511.3 461.9,505.2C463.8,501.7 467.6,496.8 470.4,494.3C480.4,485.3 536.5,454.9 572.5,439.0C656.4,401.8 753.3,378.3 843.5,373.4L856.5,372.7L866.6,359.1C910.5,300.3 965.5,247.3 1018.5,212.8C1076.0,175.3 1134.8,153.3 1195.4,146.5C1226.2,143.1 1267.9,143.8 1284.5,148.0C1310.9,154.8 1332.4,176.2 1340.1,203.6C1343.1,214.0 1343.3,233.2 1340.6,243.0C1338.0,252.3 1333.2,262.3 1326.1,272.8C1298.9,313.3 1282.6,359.0 1277.1,410.5C1275.5,424.8 1274.7,449.0 1275.4,456.3L1276.2,463.1L1284.3,467.2C1390.1,520.1 1490.5,599.1 1569.7,691.5C1650.1,785.5 1715.0,900.1 1754.0,1016.9C1777.0,1085.9 1791.0,1173.8 1797.0,1286.0C1800.6,1353.9 1800.4,1455.3 1796.4,1527.2L1795.8,1538.8L1800.6,1539.5C1809.1,1540.6 1828.1,1545.6 1838.5,1549.4C1862.7,1558.3 1899.7,1578.8 1926.8,1598.3C1970.4,1629.6 2020.6,1677.3 2043.3,1709.2L2048.0,1715.8L2048.0,1747.5L2048.0,1779.3L2043.9,1784.6C2032.7,1799.1 2011.2,1808.5 1993.6,1806.5C1990.2,1806.2 1981.7,1804.6 1974.5,1803.0C1920.3,1791.0 1842.3,1793.7 1770.5,1810.1C1762.1,1812.0 1757.6,1812.4 1743.0,1812.4C1723.7,1812.5 1714.7,1810.9 1701.1,1805.2L1694.4,1802.3L1690.4,1805.8C1679.7,1815.2 1660.8,1825.2 1645.7,1829.5C1640.7,1830.9 1630.3,1832.7 1621.7,1833.5C1547.1,1841.2 1472.5,1863.2 1425.9,1891.1C1410.1,1900.6 1403.1,1903.1 1391.0,1903.5C1385.8,1903.7 1379.5,1903.5 1377.0,1903.0ZM378.2,1052.9C407.1,1041.4 451.6,1027.5 483.5,1020.1C516.6,1012.5 577.0,998.6 599.3,993.6C610.3,991.2 619.4,988.9 619.7,988.7C619.9,988.4 618.1,979.1 615.6,967.9C610.7,945.8 607.0,924.6 604.5,905.0C602.3,887.0 601.9,885.0 600.9,885.0C600.4,885.0 593.5,887.5 585.7,890.6C518.9,917.2 463.0,952.6 414.1,999.6C397.7,1015.3 383.8,1031.3 363.7,1057.8C362.7,1059.1 363.7,1058.7 378.2,1052.9ZM329.9,899.6C319.5,895.4 313.7,889.7 308.6,879.0L305.5,872.5L305.5,849.5L305.5,826.5L308.7,820.0C313.2,810.8 317.8,805.9 326.2,801.4C333.4,797.6 333.7,797.5 344.0,797.5C353.3,797.5 355.2,797.8 360.2,800.2C368.2,803.9 375.4,810.9 379.3,818.9L382.5,825.5L382.5,850.0L382.5,874.5L379.2,880.8C374.9,889.1 369.4,894.4 360.7,898.6C354.2,901.7 352.8,902.0 344.5,902.0C337.4,902.0 334.3,901.5 329.9,899.6ZM1198.2,415.5C1201.9,351.5 1224.5,283.7 1259.2,232.1C1262.7,227.0 1263.9,224.5 1263.1,223.7C1261.3,221.9 1218.6,222.4 1203.5,224.4C1115.7,235.8 1037.3,281.7 962.2,365.7L954.9,373.9L959.2,374.4C961.6,374.7 970.7,375.7 979.5,376.5C1011.1,379.5 1050.0,386.1 1084.9,394.2C1115.9,401.3 1167.7,417.0 1188.5,425.4C1191.8,426.7 1195.2,427.8 1196.0,427.7C1197.2,427.5 1197.6,425.0 1198.2,415.5Z" fill="#000" fill-rule="evenodd"/></svg>