<svg xmlns="http://www.w3.org/2000/svg" viewBox="0 0 2048 2048" width="2048" height="2048"><path d="M1068.9,2044.8C1067.8,2042.3 1065.0,2040.2 1056.7,2035.4C1040.9,2026.2 1030.2,2017.6 1021.1,2006.5C1005.8,1988.1 996.2,1967.6 993.9,1948.5C993.1,1942.5 992.6,1883.3 992.1,1767.8L991.5,1596.1L989.2,1593.8L986.9,1591.5L882.2,1591.0L777.5,1590.5L772.9,1587.8C767.0,1584.3 760.3,1577.0 757.8,1571.2C755.9,1566.9 755.7,1565.3 756.3,1549.5C758.3,1494.6 776.7,1449.2 812.1,1411.6C819.3,1403.9 820.4,1402.3 820.4,1399.2C820.4,1396.1 819.6,1394.9 814.0,1389.7C806.2,1382.6 780.1,1362.5 765.8,1352.6C739.9,1334.7 698.2,1311.9 668.2,1299.2C599.1,1269.9 526.1,1252.6 442.0,1245.4C416.4,1243.3 350.4,1242.4 321.0,1243.9C258.4,1247.1 187.9,1256.9 142.5,1268.7C123.4,1273.7 111.7,1272.2 102.0,1263.4C92.3,1254.6 90.4,1248.3 85.0,1207.0C80.7,1174.5 79.9,1085.4 83.5,1037.5C88.6,969.2 93.8,938.8 110.0,882.5C136.1,792.0 180.7,700.6 233.5,629.5C248.1,609.8 250.8,608.0 266.3,608.0L276.8,608.0L282.8,612.0C286.5,614.5 290.2,618.1 292.6,621.6C296.5,627.2 296.5,627.3 296.8,638.5L297.2,649.7L289.6,660.6C250.4,717.2 230.9,750.6 209.6,798.4C186.6,849.7 163.1,924.3 155.0,971.5C148.3,1010.5 144.4,1076.3 145.3,1134.5C146.0,1175.0 146.9,1188.9 149.2,1193.7C151.9,1199.4 153.1,1199.5 182.7,1194.6C241.9,1184.8 278.7,1181.2 329.8,1180.0C400.1,1178.5 446.2,1180.4 496.0,1187.0C651.7,1207.7 786.2,1270.5 884.6,1368.5C907.8,1391.6 908.6,1392.8 907.7,1406.6C907.3,1412.2 906.4,1417.3 905.4,1419.1C902.6,1424.7 894.8,1431.4 885.2,1436.5C857.3,1451.4 838.2,1475.8 827.5,1510.2C825.1,1517.9 825.0,1519.2 826.2,1521.6C826.9,1523.2 828.6,1525.0 830.0,1525.7C833.7,1527.6 1214.3,1527.6 1218.0,1525.7C1219.4,1525.0 1221.1,1523.2 1221.9,1521.6C1223.1,1519.0 1222.9,1517.8 1219.5,1507.6C1208.4,1473.9 1191.1,1452.3 1162.8,1436.4C1151.7,1430.2 1145.3,1424.5 1142.0,1418.0C1140.1,1414.3 1139.9,1412.4 1140.2,1404.0C1140.5,1394.6 1140.6,1394.1 1144.4,1388.4C1153.0,1375.5 1192.8,1339.1 1223.5,1316.1C1247.8,1297.8 1287.1,1273.0 1310.2,1261.2C1321.3,1255.6 1321.6,1255.5 1330.0,1255.5C1340.1,1255.5 1345.4,1257.7 1352.4,1264.5C1359.5,1271.4 1361.0,1275.2 1361.0,1287.0C1361.0,1297.4 1360.3,1300.0 1355.7,1306.2C1352.8,1310.2 1347.4,1313.7 1325.1,1326.4C1293.6,1344.4 1272.7,1358.6 1246.5,1379.5C1229.2,1393.4 1227.6,1395.1 1227.6,1399.4C1227.6,1402.3 1228.8,1404.1 1235.4,1411.0C1270.7,1448.7 1289.7,1495.0 1291.7,1548.7C1292.3,1564.7 1292.3,1564.9 1289.7,1570.3C1286.6,1576.6 1279.6,1584.0 1273.1,1587.8L1268.5,1590.5L1164.8,1591.0L1061.1,1591.5L1058.8,1593.8L1056.5,1596.1L1056.2,1756.8C1056.1,1850.2 1056.3,1922.3 1056.9,1929.0C1057.4,1935.3 1058.8,1943.4 1059.9,1947.0C1068.2,1973.5 1100.3,1991.2 1127.2,1984.1C1147.8,1978.7 1161.7,1966.6 1169.3,1947.2L1172.3,1939.5L1173.1,1890.9C1173.9,1840.0 1174.6,1830.9 1178.2,1817.6C1180.9,1807.4 1194.2,1780.8 1201.2,1771.5C1208.0,1762.4 1224.6,1745.9 1233.5,1739.3C1246.7,1729.4 1268.6,1719.3 1286.5,1714.9C1302.6,1710.9 1400.6,1709.6 1410.7,1713.2C1416.7,1715.4 1422.3,1720.2 1426.9,1727.2L1431.0,1733.2L1431.0,1743.5L1431.0,1753.8L1427.1,1759.7C1423.3,1765.4 1418.0,1769.9 1411.3,1773.4C1408.5,1774.8 1403.4,1775.0 1371.3,1775.0C1351.1,1775.1 1327.5,1775.5 1319.0,1775.9C1305.1,1776.6 1302.5,1777.1 1293.3,1780.2C1280.2,1784.7 1273.7,1788.6 1263.4,1798.4C1250.6,1810.4 1241.5,1826.8 1239.0,1842.4C1238.4,1846.1 1237.5,1871.3 1237.0,1898.4C1236.1,1945.8 1236.0,1947.9 1233.6,1957.3C1225.0,1991.2 1202.0,2019.7 1168.5,2037.7C1163.3,2040.5 1161.1,2042.4 1160.1,2044.8L1158.6,2048.0L1114.5,2048.0L1070.4,2048.0L1068.9,2044.8ZM1918.0,1271.3C1916.6,1271.1 1906.5,1268.9 1895.5,1266.5C1826.4,1251.3 1753.2,1243.0 1688.5,1243.0C1608.8,1243.0 1557.5,1248.5 1486.5,1264.5C1466.2,1269.1 1460.6,1269.7 1453.6,1268.1C1447.5,1266.6 1439.5,1260.5 1435.0,1253.8C1431.0,1247.8 1431.0,1247.8 1431.0,1237.8C1431.0,1226.7 1432.3,1223.0 1438.6,1216.0C1445.3,1208.6 1451.0,1206.4 1481.0,1199.6C1552.0,1183.6 1631.3,1176.5 1711.1,1179.0C1767.3,1180.8 1805.6,1184.6 1860.0,1193.6C1876.0,1196.3 1889.1,1198.0 1891.3,1197.7C1899.4,1196.6 1900.5,1193.4 1902.1,1166.6C1903.6,1140.2 1902.8,1067.3 1900.6,1040.5C1896.7,993.5 1892.9,967.4 1885.0,935.4C1837.9,742.7 1733.7,593.5 1570.7,485.1C1500.5,438.4 1428.0,405.1 1342.9,380.5C1318.0,373.3 1313.3,370.3 1307.3,358.5C1304.0,352.0 1303.8,349.1 1305.5,330.4C1307.9,305.6 1307.2,265.3 1304.2,249.5C1294.2,197.7 1274.1,159.3 1239.3,125.9C1227.0,114.2 1208.7,100.2 1204.4,99.4C1200.4,98.7 1195.9,100.7 1194.4,104.0C1193.7,105.4 1192.5,111.6 1191.6,117.8C1187.4,146.7 1176.7,168.7 1156.7,189.6C1139.0,208.2 1121.7,218.8 1098.0,225.7C1090.0,228.1 1087.5,228.3 1056.8,229.0C1038.7,229.4 1009.3,229.4 991.3,229.0C959.7,228.3 958.2,228.2 949.5,225.6C920.7,217.0 893.7,197.3 877.7,173.4C865.8,155.4 859.5,139.2 856.4,117.8C854.6,104.7 853.5,102.0 849.7,100.2C845.1,98.0 841.1,99.5 829.9,107.9C782.6,143.4 755.0,189.2 743.4,251.5C740.8,265.4 740.3,308.0 742.5,330.2C744.4,350.3 743.9,354.5 738.5,362.7C735.4,367.3 730.4,371.7 724.3,374.9C723.1,375.5 715.2,377.8 706.8,380.1C685.8,385.7 648.2,398.3 626.0,407.3C539.9,442.1 464.4,487.8 397.1,546.0C380.9,560.0 377.6,562.6 372.8,565.1C368.7,567.2 357.0,568.6 351.7,567.6C345.7,566.5 336.6,559.6 332.0,552.8L328.0,546.8L328.0,536.5L328.0,526.2L332.1,520.1C341.7,505.7 394.4,463.0 440.8,432.1C505.3,389.1 570.9,356.8 648.5,329.9C661.1,325.5 672.4,321.0 673.5,319.9C675.4,318.1 675.5,316.2 676.1,290.7C677.5,234.1 686.0,197.0 707.4,155.5C733.7,104.5 773.1,64.6 828.5,32.9C840.7,25.9 861.2,16.0 873.7,11.1C882.1,7.7 884.3,6.1 885.4,2.2L886.1,0.0L913.0,0.0L939.9,0.0L940.5,2.2C940.9,3.5 942.3,5.6 943.5,7.0C944.8,8.4 947.2,11.7 948.9,14.4C951.8,19.1 952.0,19.9 952.0,29.3C952.0,41.9 950.7,44.8 938.9,57.6C925.4,72.3 919.8,84.9 919.8,100.3C919.9,127.6 936.6,152.2 961.5,161.6C971.6,165.3 988.6,166.3 1035.5,165.7C1077.1,165.2 1079.5,164.9 1091.4,159.6C1112.8,150.0 1128.0,125.5 1128.0,100.5C1128.0,84.3 1122.8,72.6 1109.1,57.6C1097.3,44.8 1096.0,41.9 1096.0,29.3C1096.0,19.9 1096.2,19.1 1099.1,14.4C1100.8,11.7 1103.2,8.4 1104.5,7.0C1105.7,5.6 1107.1,3.5 1107.5,2.2L1108.1,0.0L1134.9,0.0L1161.6,0.0L1163.1,3.3C1164.7,6.9 1165.5,7.4 1186.5,16.5C1236.6,38.2 1279.8,70.3 1310.4,108.5C1327.5,129.9 1345.3,161.4 1354.5,186.4C1366.1,218.0 1372.6,260.9 1371.8,301.2C1371.5,316.9 1371.6,318.1 1373.5,319.9C1374.6,321.0 1384.9,325.0 1397.0,329.0C1453.9,347.9 1516.7,376.9 1573.5,410.7C1663.8,464.4 1745.8,538.0 1808.1,621.2C1870.8,705.0 1918.1,803.8 1944.5,906.4C1953.0,939.4 1956.8,959.0 1959.9,987.0C1964.9,1030.6 1965.2,1038.0 1965.7,1107.4C1966.2,1178.3 1965.9,1186.3 1961.5,1217.5C1956.9,1250.5 1954.7,1257.0 1945.5,1264.6C1937.5,1271.1 1929.0,1273.2 1918.0,1271.3ZM787.7,1021.3C783.0,1020.5 772.8,1012.8 768.7,1006.9C760.8,995.4 761.5,984.6 771.5,964.5C794.7,917.7 835.5,879.4 888.5,854.8C902.9,848.1 907.0,847.0 916.3,847.0C923.2,847.0 925.3,847.4 929.8,849.7C936.2,852.9 941.0,857.5 944.7,863.8C947.3,868.1 947.5,869.4 947.5,878.6L947.5,888.8L943.5,894.5C938.5,901.9 931.6,907.0 921.5,911.0C888.3,924.1 857.4,948.2 839.0,975.5C836.4,979.4 831.2,988.5 827.5,995.9C820.2,1010.3 816.1,1015.3 808.9,1018.8C804.5,1020.9 793.2,1022.3 787.7,1021.3ZM1245.3,1021.1C1239.9,1020.2 1230.6,1013.8 1227.1,1008.6C1225.6,1006.3 1221.6,998.9 1218.3,992.0C1210.8,976.6 1202.8,965.6 1189.4,952.3C1171.6,934.6 1149.1,919.9 1125.2,910.4C1115.9,906.7 1109.7,902.0 1104.6,894.7L1100.5,888.9L1100.5,878.7C1100.5,869.4 1100.7,868.1 1103.2,863.8C1106.8,857.7 1111.1,853.6 1117.4,850.0C1122.0,847.3 1123.4,847.0 1131.2,847.0C1136.5,847.0 1141.8,847.6 1144.7,848.6C1152.5,851.2 1178.7,864.2 1189.0,870.5C1228.2,894.9 1260.5,930.0 1278.1,967.4C1283.9,979.9 1285.6,987.6 1284.2,995.2C1282.3,1005.4 1274.2,1015.4 1264.5,1019.5C1260.6,1021.2 1250.6,1022.0 1245.3,1021.1ZM724.5,899.9C719.7,898.5 711.8,891.9 707.7,885.9C704.5,881.2 703.8,879.4 703.3,873.4C702.5,864.1 704.0,857.8 710.0,845.6C733.1,798.1 779.8,755.0 832.4,732.6C845.6,726.9 851.5,725.6 859.3,726.4C867.0,727.2 873.0,730.2 878.5,736.1C885.5,743.6 887.0,747.4 887.0,758.2C887.0,766.6 886.7,768.0 884.1,772.5C878.7,781.9 875.0,784.5 852.2,794.5C822.4,807.6 795.2,830.2 777.7,856.3C775.1,860.3 770.0,869.4 766.5,876.7C759.6,890.8 756.9,893.8 747.6,898.5C743.5,900.5 741.2,901.0 735.1,900.9C730.9,900.9 726.1,900.4 724.5,899.9ZM1298.5,897.6C1290.3,892.6 1288.0,889.6 1279.9,873.9C1270.8,856.0 1262.9,844.9 1250.0,832.0C1232.6,814.6 1213.8,801.9 1190.9,792.1C1173.3,784.5 1167.7,780.3 1163.0,770.9C1160.1,765.3 1160.2,750.5 1163.1,744.9C1170.5,730.3 1185.9,723.3 1201.7,727.3C1219.9,732.0 1257.5,753.1 1276.1,769.2C1307.1,795.8 1328.2,822.7 1341.0,852.0C1344.0,858.7 1344.4,860.5 1344.4,869.0C1344.5,880.3 1343.2,883.7 1335.5,891.5C1328.3,898.9 1325.2,900.2 1314.0,900.7C1304.5,901.2 1304.5,901.2 1298.5,897.6ZM665.7,780.1C661.3,779.2 652.3,773.2 649.3,769.2C639.4,755.9 639.8,745.1 651.1,722.7C674.6,675.5 719.5,634.8 773.3,611.5C790.9,603.9 803.1,604.1 813.7,612.1C821.0,617.5 824.9,623.7 826.2,631.4C827.8,641.1 826.6,647.9 821.9,654.9C817.6,661.4 812.4,665.2 802.0,669.5C777.3,679.8 757.9,692.3 740.2,709.5C725.2,724.0 719.0,732.3 708.0,752.7C698.4,770.4 695.9,773.6 689.2,777.3C683.7,780.3 672.8,781.6 665.7,780.1ZM1363.8,779.6C1358.7,777.8 1350.5,771.5 1348.2,767.7C1347.1,765.9 1343.1,758.5 1339.4,751.2C1330.9,734.6 1322.7,723.5 1309.0,710.0C1292.5,693.6 1274.3,681.7 1249.5,671.0C1234.7,664.7 1229.5,660.9 1225.1,653.7C1221.5,647.5 1220.1,639.3 1221.4,630.6C1222.3,624.6 1228.9,615.7 1236.2,610.7C1241.0,607.3 1242.6,606.8 1249.2,606.3C1253.8,606.0 1258.8,606.2 1262.1,607.0C1269.4,608.7 1291.0,618.6 1304.9,626.7C1339.7,646.9 1373.5,680.3 1391.7,712.8C1407.4,740.5 1409.3,752.1 1400.4,766.3C1393.1,778.0 1376.4,784.1 1363.8,779.6ZM911.0,391.2C898.6,386.5 890.6,379.5 884.7,368.3C881.0,361.3 881.0,361.1 881.0,349.5C881.0,338.2 881.1,337.5 884.2,331.6C888.7,323.1 897.9,314.1 906.5,309.9C913.2,306.6 913.9,306.5 924.5,306.5C935.3,306.5 935.6,306.6 942.8,310.4C974.8,327.5 975.9,369.2 944.7,387.8C936.2,392.9 919.8,394.5 911.0,391.2ZM1113.4,392.1C1107.9,391.2 1099.0,385.7 1092.8,379.5C1076.4,363.2 1076.4,337.4 1092.7,319.9C1104.1,307.7 1118.7,303.4 1134.5,307.6C1146.3,310.6 1155.7,318.1 1162.6,330.0L1167.0,337.5L1167.0,349.3C1167.0,361.1 1167.0,361.3 1163.4,368.1C1158.8,376.9 1151.0,384.7 1142.8,388.8C1137.3,391.6 1135.2,392.1 1127.0,392.5C1121.8,392.7 1115.6,392.6 1113.4,392.1Z" fill="#000" fill-rule="evenodd"/></svg>