<svg xmlns="http://www.w3.org/2000/svg" viewBox="0 0 2048 2048" width="2048" height="2048"><path d="M1255.0,2045.1C1255.0,2043.1 1254.1,2041.5 1252.3,2040.1C1249.1,2037.5 1248.8,2037.5 1233.0,2036.0C1194.8,2032.5 1160.0,2022.8 1128.9,2006.9C1080.2,1982.1 1049.0,1947.2 1038.5,1905.6C1033.3,1885.3 1033.2,1869.3 1038.0,1850.3C1039.3,1845.4 1040.0,1839.9 1039.8,1836.4C1039.5,1831.5 1039.1,1830.4 1036.7,1828.7C1033.7,1826.4 1033.8,1826.4 984.5,1830.6C960.4,1832.7 885.9,1833.0 863.0,1831.2C799.0,1826.1 744.4,1816.9 687.7,1801.9C500.0,1752.1 333.8,1643.7 211.5,1491.5C94.8,1346.3 26.5,1172.2 12.5,984.5C11.7,973.5 11.0,961.0 11.0,956.8C11.0,949.6 10.8,948.8 7.9,945.5C6.0,943.3 3.9,942.0 2.4,942.0L0.0,942.0L0.0,921.5L0.0,901.0L2.4,901.0C3.9,901.0 5.9,899.7 7.7,897.6C10.6,894.3 10.7,894.2 11.4,878.4C14.3,809.9 28.8,726.3 49.5,658.3C77.1,567.5 119.8,479.3 173.3,402.5C251.7,290.1 352.8,197.6 471.5,129.8C487.3,120.7 532.9,97.7 552.1,89.0C593.0,70.4 649.2,51.1 698.5,38.5C756.9,23.7 811.7,15.2 872.8,11.6L895.1,10.3L898.0,7.5C899.7,5.9 901.0,3.6 901.0,2.3L901.0,0.0L921.5,0.0L942.0,0.0L942.0,2.3C942.0,3.6 943.3,5.9 945.0,7.5L947.9,10.3L970.2,11.6C1096.3,19.0 1215.1,50.5 1327.0,106.1C1378.8,131.9 1421.2,158.0 1466.5,192.0C1502.7,219.2 1526.9,240.0 1559.4,272.0C1607.3,319.1 1644.4,364.0 1680.9,418.8C1750.7,523.6 1799.0,645.7 1819.9,770.5C1828.4,821.3 1831.0,849.9 1833.0,913.8C1834.0,946.8 1833.7,946.0 1842.9,946.0C1849.6,946.0 1858.5,943.7 1909.5,928.5C1961.6,913.0 1974.2,909.7 1981.3,909.8C1996.6,910.0 2016.0,920.2 2025.4,933.0C2030.3,939.7 2035.6,951.5 2036.6,958.1C2037.4,963.3 2042.1,969.0 2045.7,969.0L2048.0,969.0L2048.0,1338.5L2048.0,1708.0L2045.9,1708.0C2043.1,1708.0 2040.3,1709.6 2039.0,1712.0C2038.4,1713.0 2037.1,1718.5 2035.9,1724.2C2027.5,1767.3 2002.3,1801.2 1959.4,1827.3C1921.5,1850.4 1875.1,1863.9 1826.0,1866.0C1775.7,1868.2 1732.7,1861.1 1690.7,1843.6C1656.5,1829.4 1625.7,1806.6 1607.0,1781.5C1595.2,1765.8 1584.8,1741.2 1581.9,1722.6C1580.0,1710.8 1581.3,1689.2 1584.5,1678.1C1597.1,1633.7 1629.1,1599.1 1680.0,1574.6C1702.8,1563.7 1728.0,1556.0 1759.5,1550.3C1773.8,1547.7 1776.1,1547.6 1810.8,1547.4L1847.2,1547.3L1849.8,1544.6L1852.5,1542.0L1852.5,1393.0L1852.5,1244.1L1849.6,1241.1C1845.3,1236.7 1841.7,1237.0 1818.1,1244.0C1776.6,1256.2 1771.7,1257.9 1768.3,1261.3C1766.1,1263.5 1762.1,1271.4 1755.5,1286.5C1699.5,1413.6 1615.9,1526.1 1511.3,1614.7C1500.5,1623.8 1492.8,1631.0 1492.5,1632.3C1492.3,1633.5 1491.9,1691.0 1491.6,1760.0C1491.3,1841.9 1490.7,1888.4 1490.0,1893.9C1486.2,1923.3 1466.2,1956.8 1438.6,1979.8C1400.8,2011.3 1350.7,2030.4 1290.5,2036.4C1277.8,2037.6 1276.7,2037.9 1274.0,2040.5C1272.3,2042.1 1271.0,2044.4 1271.0,2045.7C1271.0,2047.9 1270.7,2048.0 1263.0,2048.0L1255.0,2048.0L1255.0,2045.1ZM1301.2,1987.4C1338.9,1982.2 1374.9,1968.8 1400.7,1950.4C1417.7,1938.2 1433.6,1918.5 1440.2,1901.1L1443.5,1892.5L1444.0,1605.5L1444.5,1318.5L1447.2,1313.9C1451.5,1306.6 1454.8,1304.5 1468.7,1300.1C1508.5,1287.7 1858.2,1182.8 1873.0,1178.9C1875.6,1178.2 1879.2,1178.0 1881.2,1178.4C1887.1,1179.5 1894.1,1184.8 1897.8,1191.0L1901.1,1196.5L1900.8,1390.0L1900.5,1583.5L1898.3,1587.6C1894.1,1595.4 1885.6,1601.0 1877.9,1601.0C1875.7,1601.0 1867.1,1599.8 1858.7,1598.2C1844.0,1595.6 1842.3,1595.5 1808.5,1595.5C1770.0,1595.5 1764.5,1596.1 1738.0,1603.1C1682.1,1617.9 1639.0,1652.0 1630.5,1688.0C1628.5,1696.7 1628.5,1717.7 1630.5,1725.4C1638.2,1754.8 1666.6,1782.1 1708.1,1799.9C1739.5,1813.3 1767.0,1818.4 1809.0,1818.4C1844.0,1818.4 1866.3,1815.2 1894.1,1806.0C1936.5,1792.0 1968.0,1767.8 1983.4,1737.2C1986.4,1731.2 1987.2,1728.1 1988.3,1719.2C1989.2,1710.9 1989.5,1624.6 1989.5,1336.3L1989.5,964.1L1986.6,961.1C1982.6,957.0 1978.9,957.0 1963.6,961.6C1893.9,982.2 1845.3,996.7 1667.0,1050.1C1539.1,1088.5 1436.3,1119.5 1398.5,1131.1C1369.1,1140.2 1360.5,1143.3 1358.0,1145.6L1355.5,1148.0L1355.0,1450.8L1354.5,1753.5L1351.5,1758.9C1348.2,1764.9 1342.8,1769.4 1336.7,1771.2C1333.4,1772.2 1330.0,1771.9 1313.1,1769.1L1293.3,1765.8L1257.9,1766.3C1222.9,1766.7 1222.3,1766.8 1207.8,1769.9C1153.1,1781.5 1111.9,1806.7 1092.0,1840.6C1082.8,1856.2 1079.7,1876.4 1083.8,1892.8C1088.3,1910.4 1097.0,1925.0 1110.9,1938.3C1136.1,1962.2 1178.2,1980.8 1221.0,1986.9C1225.1,1987.5 1229.6,1988.2 1231.0,1988.4C1232.4,1988.6 1246.2,1988.8 1261.7,1988.9C1282.4,1989.0 1292.9,1988.6 1301.2,1987.4ZM962.0,1784.0C998.9,1782.2 1032.9,1778.7 1067.5,1772.9C1091.9,1768.9 1094.6,1768.0 1109.5,1759.1C1142.7,1739.2 1173.8,1727.6 1211.0,1721.1C1229.8,1717.8 1241.6,1717.0 1272.4,1717.0L1301.7,1717.0L1304.1,1714.4L1306.5,1711.8L1307.1,1430.2C1307.7,1148.5 1307.8,1141.0 1311.0,1132.5C1315.4,1120.8 1326.7,1107.6 1336.7,1102.3C1343.8,1098.5 1350.1,1096.5 1611.5,1018.0C1788.4,964.8 1777.0,968.4 1780.6,964.6L1783.8,961.3L1784.5,945.4C1786.0,913.8 1783.6,858.6 1778.9,818.0C1759.3,648.1 1690.0,491.0 1575.6,357.0C1555.0,332.9 1502.0,280.7 1476.5,259.5C1374.4,174.2 1256.3,114.1 1130.5,83.1C983.5,47.0 822.8,50.4 679.0,92.5C559.1,127.6 454.2,184.5 358.5,266.4C341.8,280.7 283.5,338.6 268.9,355.5C182.3,455.3 119.2,574.7 86.0,701.5C52.3,830.2 49.3,973.2 77.6,1104.8C122.5,1314.0 245.7,1500.5 422.0,1626.1C578.8,1737.7 768.5,1793.2 962.0,1784.0ZM1518.7,1544.8C1537.9,1527.0 1567.3,1495.7 1586.1,1473.0C1621.6,1430.1 1652.9,1384.1 1679.5,1335.5C1694.8,1307.7 1698.0,1300.5 1698.0,1294.2C1698.0,1282.6 1693.0,1282.2 1661.8,1291.1C1620.9,1302.7 1515.4,1334.6 1502.8,1339.2C1499.7,1340.3 1496.1,1342.3 1494.8,1343.7L1492.5,1346.2L1492.5,1448.0L1492.5,1549.9L1495.4,1552.9C1497.8,1555.4 1499.2,1556.0 1502.5,1556.0C1506.3,1556.0 1507.4,1555.3 1518.7,1544.8ZM887.0,1216.4C786.0,1202.7 702.7,1144.1 657.6,1055.1C641.9,1024.1 633.2,997.0 627.8,962.5C624.6,942.2 624.6,900.8 627.8,880.5C643.5,780.2 703.6,698.2 793.5,654.6C861.0,621.8 939.0,616.0 1009.1,638.6C1055.4,653.5 1097.6,678.9 1130.4,711.6C1196.9,777.9 1228.9,873.4 1215.0,964.1C1194.6,1097.6 1088.8,1199.9 954.0,1216.5C938.2,1218.4 901.7,1218.4 887.0,1216.4ZM964.9,1167.1C1018.4,1157.4 1062.1,1134.2 1100.0,1095.4C1125.2,1069.6 1140.7,1045.5 1154.0,1012.0C1166.5,980.1 1170.7,954.2 1169.7,913.5C1169.1,887.7 1167.4,874.8 1161.6,854.0C1150.2,812.5 1129.4,777.4 1097.5,745.4C1055.7,703.5 1004.7,679.2 947.7,673.9C932.6,672.5 895.4,673.4 881.6,675.5C831.3,683.2 783.3,707.8 745.4,745.5C710.5,780.2 688.5,820.7 677.4,870.5C671.6,896.6 671.9,947.7 678.0,974.9C699.2,1069.9 774.0,1145.0 867.7,1165.0C887.5,1169.2 896.1,1169.9 925.0,1169.6C948.1,1169.3 954.5,1168.9 964.9,1167.1ZM908.1,1047.0C851.7,1039.1 808.0,998.0 797.6,943.0C795.6,932.6 795.5,911.9 797.5,900.9C803.3,867.5 823.7,836.1 851.9,817.3C895.5,788.3 949.0,788.7 992.9,818.3C1032.8,845.2 1054.9,898.7 1045.1,944.7C1039.5,971.3 1028.7,991.5 1010.1,1010.0C995.1,1024.9 979.7,1034.5 960.1,1041.1C944.2,1046.5 922.3,1049.0 908.1,1047.0ZM937.4,998.6C957.5,994.7 974.9,983.0 986.4,965.7C996.8,950.0 1000.6,936.5 999.7,918.1C998.4,888.7 982.5,864.0 956.7,851.3C944.4,845.2 938.6,844.0 921.9,844.0C904.5,844.0 897.9,845.4 886.1,851.5C866.4,861.7 850.6,880.7 845.5,900.5C843.5,908.3 843.5,933.1 845.5,941.5C849.1,956.9 861.1,975.1 873.8,984.4C883.1,991.2 899.1,998.0 908.5,999.3C915.7,1000.3 930.4,999.9 937.4,998.6ZM161.5,942.6C156.3,940.3 152.3,936.3 149.2,930.6C147.7,927.9 147.5,924.4 147.5,904.5C147.6,844.3 159.0,770.9 178.5,704.5C222.8,553.6 313.1,418.4 435.5,319.5C505.2,263.2 588.4,217.3 673.0,188.5C748.6,162.8 834.1,147.7 904.5,147.5C929.5,147.5 929.7,147.5 936.9,153.6C943.7,159.3 946.7,170.4 943.6,178.4C941.7,183.3 936.5,189.2 931.8,191.6C928.2,193.5 917.1,194.5 885.1,196.0C826.7,198.7 777.2,206.6 723.1,222.0C653.8,241.7 590.7,270.1 531.0,308.3C436.0,369.1 354.0,453.6 296.4,550.1C233.7,655.4 199.6,771.7 195.5,895.0C194.6,922.0 193.7,928.3 189.9,934.1C187.6,937.8 185.4,939.6 180.8,942.0C173.4,945.7 168.3,945.8 161.5,942.6ZM300.5,943.8C290.9,940.2 284.9,932.2 283.4,921.2C282.7,915.6 284.5,880.2 286.6,860.0C306.2,668.3 410.0,496.0 569.5,390.5C626.0,353.1 681.3,327.4 745.1,309.0C798.7,293.5 848.9,285.5 900.2,284.3L925.9,283.7L931.4,286.4C939.1,290.2 945.0,299.1 945.0,307.0C945.0,315.4 936.9,326.8 929.4,328.9C927.2,329.5 914.7,330.7 901.5,331.5C838.4,335.4 803.4,340.9 757.5,354.1C695.2,372.0 632.2,402.5 579.1,440.4C532.1,473.9 483.2,521.7 448.2,568.3C396.7,636.9 359.5,720.3 342.6,805.0C336.8,833.6 334.2,856.6 331.5,902.2C330.0,928.2 329.4,931.0 324.5,936.8C319.2,943.2 307.7,946.5 300.5,943.8ZM436.6,943.5C431.0,941.5 425.9,937.0 423.0,931.4C420.6,926.7 420.5,925.9 420.6,908.0C420.8,837.4 443.6,752.0 480.0,684.9C556.6,543.8 694.0,447.8 852.0,425.1C875.9,421.7 888.1,420.7 908.0,420.6L927.5,420.5L932.2,423.3C939.7,427.7 945.0,436.4 945.0,444.4C945.0,449.0 940.8,457.0 936.6,460.8C930.2,466.4 927.3,467.1 905.5,468.1C831.5,471.3 768.2,488.4 706.6,521.5C663.7,544.7 630.4,570.1 593.8,607.8C561.2,641.4 534.3,679.8 513.5,722.5C486.4,778.1 472.5,831.2 469.0,893.0C467.3,923.5 466.6,928.5 462.9,934.1C460.6,937.8 458.4,939.6 453.8,942.0C447.1,945.3 442.7,945.7 436.6,943.5Z" fill="#000" fill-rule="evenodd"/></svg>