<svg id="outline" height="512" viewBox="0 0 64 64" width="512" xmlns="http://www.w3.org/2000/svg"><g id="Microphone"><path d="m32 42a13 13 0 0 0 12.93-11.65 1 1 0 0 0 .07-.35 1.42 1.42 0 0 0 0-.2c0-.27 0-.53 0-.8v-14a13 13 0 0 0 -26 0v14a13 13 0 0 0 13 13zm-5-13h-6v-6h6a1 1 0 0 0 0-2h-6v-5h6a1 1 0 0 0 0-2h-5.95a11 11 0 0 1 21.95 0h-5a1 1 0 0 0 0 2h5v5h-5a1 1 0 0 0 0 2h5v6h-5a1 1 0 0 0 0 2h4.81a11 11 0 0 1 -21.62 0h5.81a1 1 0 0 0 0-2zm23 0v-8a1 1 0 0 0 -2 0v8a16 16 0 0 1 -17.89 15.89 16 16 0 0 1 -14.11-15.89v-8a1 1 0 0 0 -2 0v8a17.95 17.95 0 0 0 15 17.73v8.27h-4a7.8 7.8 0 0 0 -4.85 1.47 5.49 5.49 0 0 0 -2.15 4.53 1 1 0 0 0 1 1h26a1 1 0 0 0 1-1c0-3.59-2.81-6-7-6h-4v-8.27a18 18 0 0 0 15-17.73zm-19 18h1s.67 0 1 0v8h-2zm8 10c2.12 0 4.37.81 4.89 3h-23.78a3.41 3.41 0 0 1 1.26-2 5.93 5.93 0 0 1 3.63-1z"/></g></svg>